<svg xmlns="http://www.w3.org/2000/svg" width="256" height="256">
  <path d="M77.002 19.109v57.892H19.111v10h57.891V169H19.111v10h57.891v57.89h10V179H169v57.89h10V179h57.89v-10H179V87.001h57.89v-10H179V19.109h-10v57.892H87.002V19.109Zm10 67.892H169V169H87.002Z" style="fill:#a7bde6"/>
  <path d="M42.519 13.055c-4.9 0-7.99 3.48-10.08 6.97-2.11 3.46-3.3 7.38-3.3 11.36 0 2.18.53 3.06 1.03 4.2.49 1.14 1.11 2.32 1.89 3.67 1.55 2.7 3.73 6.07 6.61 10.26 5.75 8.39 14.26 20 25.59 34.94l-.03-.05c1.91 2.57 3.21 4.44 4.19 5.9-1.16 1.28-2.66 2.87-4.89 5.11l-.02.01-.01.01c-18.22 18.455-31.93 33.495-41.24 45.335-4.65 5.92-8.21 11.03-10.72 15.52-2.51 4.48-4.16 8.25-4.16 12.53 0 3.49.9 7.14 3.5 9.84s6.32 3.73 9.79 3.73c5.71 0 11.08-1.48 14.75-5.37h.01c3.57-3.79 5.71-9 8.21-16.56.61-1.72 4.31-7.67 10.84-15.47 6.55-7.83 15.93-18.02 28.07-30.45h.01c.92-.95 1.46-1.53 2.27-2.38 1.35 1.7 2.6 3.22 4.05 5.08 14.761 18.94 25.331 31.44 32.491 38.1l.02.01.01.01c7.18 6.61 14.61 10.62 22.42 10.62 3.65 0 7.44-1.73 9.84-4.46l.04-.05.04-.05c2.06-2.43 3.56-5.54 3.56-8.92 0-2.96-.92-3.98-1.76-5.42-.83-1.43-1.89-2.94-3.23-4.69-2.84-3.81-6.15-6.95-9.91-9.28l-.09-.05-.09-.05c-4.2-2.4-7.71-4.93-10.55-7.55h-.01v-.01c-2.8-2.58-7.81-8.02-14.54-15.97-6.66-7.95-10.95-13.415-12.39-15.555-.36-.58-.52-.87-.8-1.33.63-.87 1.34-1.82 2.54-3.25 3.03-3.6 7.76-8.76 14.09-15.34v-.01c12.69-13.26 23-23.46 30.83-30.54l.04-.04c3.22-2.85 5.69-5.22 7.53-7.29.92-1.04 1.69-1.99 2.37-3.07.67-1.08 1.5-2.2 1.5-4.68 0-4.24-2.37-7.89-5.38-10.57-2.87-2.62-6.16-4.66-10.23-4.66-2.38 0-3.62.74-4.89 1.44-1.26.7-2.47 1.56-3.81 2.6-2.68 2.09-5.84 4.98-9.69 8.76l-.01.01v.01c-7.07 7-21.09 22.22-40.761 44.06-12.69-15.73-22.25-29.93-28.31-42.26v-.01c-2.08-4.18-4.27-7.57-7.01-10.19-2.73-2.62-6.32-4.51-10.22-4.51Zm60.181 77.45c.03.01.14.08.24.44-.12-.22-.22-.42-.24-.44Zm-33.021 1.77c.03.05.11.18.13.21.02.03.02.06.02.08v.01h-.01c-.03-.02-.09-.11-.14-.3Z" style="fill:#251ebd"/>
  <path d="M186.12 69.998c-3.64-.214-7.13.046-10.46.834-6.48 1.533-13.51 5.058-21.64 10.391-8.37 5.488-15.99 14.015-23.23 25.387v.01c-7.42 11.63-12.71 25.56-16.01 41.69v.01h-.01v.01c-3.31 15.94-4.36 29.85-2.92 41.87v.02l.01.02c1.53 12.3 6.93 25.14 15.79 38.66 6.77 10.33 18.31 16.14 32.59 17.38h.03c14.05 1.15 26.72-1.6 37.19-8.47 11.95-7.84 22.75-20.06 32.72-36.43 10.06-16.5 16.13-33.56 18.03-51v-.01c1.97-17.59-1.13-33.27-9.57-46.14-6.09-9.29-12.45-16.502-19.33-21.538-6.6-4.899-13.9-8.485-21.79-10.69h-.01c-3.94-1.103-7.74-1.79-11.39-2.004Zm1.79 29.26.04.002h.05c3.94.034 8.72 1.5 14.34 4.98h.01l.02.01c5.48 3.35 10.25 8.04 14.37 14.33 6.47 9.86 6.75 25.2-1.39 47.28-8.2 22.09-19.43 37.36-33.48 46.57-6.47 4.24-12.58 5.56-19.41 4.41h-.01c-6.97-1.17-11.33-3.96-14.55-8.88-9.71-14.81-11.96-32.67-6.18-55.09 5.79-22.49 16.39-38.26 31.93-48.44 5.78-3.8 10.54-5.26 14.26-5.172Z" style="fill:#bd311e"/>
</svg>
