<svg xmlns="http://www.w3.org/2000/svg" xmlns:xlink="http://www.w3.org/1999/xlink" xml:space="preserve" width="1024" height="1024" fill="none"><path fill="#ccc" d="M0 277.333h341.333V128H42.667C19.2 128 0 147.2 0 170.667z" style="stroke-width:21.3333"/><path fill="#999" d="M682.667 128H341.333v149.333h341.334z" style="stroke-width:21.3333"/><path fill="#666" d="M1024 277.333H682.667V128h298.666c23.467 0 42.667 19.2 42.667 42.667z" style="stroke-width:21.3333"/><path fill="url(#a)" d="M981.333 896H42.667C19.2 896 0 876.8 0 853.333V256h1024v597.333C1024 876.8 1004.8 896 981.333 896z" style="fill:url(#a);stroke-width:21.3333"/><defs><linearGradient id="a" x1="36.45" x2="11.82" y1="47.83" y2="5.175" gradientTransform="matrix(21.33333 0 0 21.33333 0 0)" gradientUnits="userSpaceOnUse"><stop offset="0" stop-color="#333" style="stop-color:#2c071a;stop-opacity:1"/><stop offset="1" stop-color="#4D4D4D" style="stop-color:#580e34;stop-opacity:1"/></linearGradient><linearGradient id="d" x1="14.53" x2="10.48" y1="34" y2="26.99" gradientUnits="userSpaceOnUse"><stop stop-color="#999"/><stop offset="1" stop-color="#B3B3B3"/></linearGradient><linearGradient id="b" x1="14.53" x2="10.48" y1="34" y2="26.99" gradientUnits="userSpaceOnUse"><stop stop-color="#999"/><stop offset="1" stop-color="#B3B3B3"/></linearGradient><linearGradient id="e" x1="16.27" x2="8.737" y1="30.03" y2="16.98" gradientUnits="userSpaceOnUse"><stop stop-color="#CCC"/><stop offset="1" stop-color="#E6E6E6"/></linearGradient><linearGradient id="g" x1="16.27" x2="8.737" y1="30.03" y2="16.98" gradientUnits="userSpaceOnUse"><stop stop-color="#CCC"/><stop offset="1" stop-color="#E6E6E6"/></linearGradient><linearGradient xlink:href="#b" id="c" x1="14.53" x2="10.48" y1="34" y2="26.99" gradientTransform="matrix(21.33333 0 0 21.33333 0 0)" gradientUnits="userSpaceOnUse"/><mask id="f" maskUnits="userSpaceOnUse"><path fill="url(#b)" d="M324.267 518.4 136.533 706.133c-10.666 10.667-10.666 25.6 0 34.134l38.4 38.4c10.667 10.666 25.6 10.666 34.134 0L396.8 590.933c10.667-10.666 10.667-25.6 0-34.133l-38.4-38.4c-8.533-8.533-25.6-8.533-34.133 0z" style="fill:url(#c);stroke-width:21.3333" transform="matrix(.04688 0 0 .04688 0 0)"/></mask></defs><path fill="url(#d)" d="m15.2 24.3-8.8 8.8c-.5.5-.5 1.2 0 1.6l1.8 1.8c.5.5 1.2.5 1.6 0l8.8-8.8c.5-.5.5-1.2 0-1.6l-1.8-1.8c-.4-.4-1.2-.4-1.6 0z" style="fill:url(#d);filter:url(#filter0_dd)" transform="matrix(21.33333 0 0 21.33333 -80 0)"/><path fill="url(#e)" d="m9.8 17.3 8.8 8.8c.5.5.5 1.2 0 1.6l-1.8 1.8c-.5.5-1.2.5-1.6 0l-8.8-8.8c-.5-.5-.5-1.2 0-1.6l1.8-1.8c.4-.4 1.2-.4 1.6 0z" mask="url(#f)" style="fill:url(#e);filter:url(#filter1_dd)" transform="matrix(21.33333 0 0 21.33333 -80 0)"/><path fill="url(#g)" d="m9.8 17.3 8.8 8.8c.5.5.5 1.2 0 1.6l-1.8 1.8c-.5.5-1.2.5-1.6 0l-8.8-8.8c-.5-.5-.5-1.2 0-1.6l1.8-1.8c.4-.4 1.2-.4 1.6 0z" style="fill:url(#g);filter:url(#filter0_dd)" transform="matrix(21.33333 0 0 21.33333 -80 0)"/><path d="M632.579 818.633c7.672-18.942 21.68-42.386 35.341-59.142 26.113-32.033 56.322-55.932 120.784-95.557 56.443-34.697 78.471-50.621 100.414-72.588 16.392-16.407 26.339-29.621 35.336-46.948 12.7-24.441 19.109-49.256 20.018-77.499.5-15.537.255-19.71-1.782-30.346-5.527-28.902-17.291-51.144-38.282-72.403-21.748-22.02-47.43-35.114-77.68-39.606-28.782-4.275-57.316.318-82.883 13.338-14.485 7.377-23.787 14.205-35.938 26.376-19.09 19.122-30.874 40.575-37.006 67.374-2.065 9.025-4.678 28.84-3.905 29.62.193.196 1.18-2.498 2.194-5.984 7.701-26.495 26.917-49.737 52.268-63.224 18.694-9.944 32.895-13.063 55.475-12.181 17.581.684 28.994 3.722 44.515 11.839 39.005 20.404 62.236 64.125 56.778 106.864-4.75 37.225-16.358 61.053-42.571 87.39-18.258 18.342-31.988 28.442-72.602 53.405-25.18 15.477-44.529 28.265-56.212 37.147-28.711 21.829-49.645 45.882-62.893 72.265-8.345 16.612-9.06 19.225-11.399 41.616-3.308 31.646-3.56 34.52-3.017 34.52.277 0 1.647-2.825 3.047-6.276Zm-20.703-26.469c.082-.3.784-10.613 1.562-22.921 1.397-22.085 1.383-22.512-1.114-32.888-1.389-5.782-4.46-14.99-6.817-20.463-13.226-30.676-29.892-50.679-76.032-91.262-41.644-36.627-55.109-51.615-65.941-73.391-8.275-16.639-12.1-33.458-12.1-53.212 0-42.265 25.651-76.373 66.298-88.155 7.084-2.054 10.969-2.441 23.751-2.371 14.084.08 16.094.356 25.68 3.524 29.688 9.806 52.456 33.937 59.418 62.971 3.594 14.992 3.798 14.73 3.382-4.364-.345-15.771-.825-20.064-3.204-28.597-6.915-24.814-21.549-46.608-41.271-61.468-15.577-11.738-33.061-19.203-52.285-22.32-58.143-9.43-114.334 27.652-129.44 85.417-2.189 8.368-2.881 14.15-3.301 27.512-.838 26.821 3.262 47.345 13.941 69.762 14.021 29.432 32.077 49.953 83.419 94.799 56.238 49.124 78.812 74.595 95.948 108.261 6.658 13.079 10.502 23.089 14.9 38.797 1.683 6.003 3.125 10.669 3.206 10.369Z" style="fill:#ccc;fill-opacity:1;stroke-width:1.09148"/></svg>