<svg xmlns="http://www.w3.org/2000/svg" xml:space="preserve" width="456" height="456" style="fill-rule:evenodd;clip-rule:evenodd;stroke-linejoin:round;stroke-miterlimit:2"><path fill="#bf3fba" d="M183.21 133.93c.76 4.08 1.15 9.74 1.15 16.97v7.05H150.5l-18.69-.29c-.67 0-1.11.07-1.3.21-.19.15-.28.6-.28 1.37v12c0 .67.07 1.11.21 1.3.15.19.6.29 1.37.29l18.69-.29h2.8c7 22.57 16.54 40.38 28.62 53.41-13.23 10.45-31.2 19.15-53.92 26.1 2.92 3.12 5.13 6.76 6.61 10.93.96 2.45 1.89 3.67 2.8 3.67.19 0 1.37-.29 3.53-.87 20.51-7.14 38.03-16.77 52.55-28.9 11.94 10.01 25.68 18.25 41.14 24.77l6.29-16.79c-13.79-5.2-25.65-11.53-35.5-19.05 12.36-13.42 21.59-31.18 27.68-53.27h3.38l18.69.29c.77 0 1.27-.07 1.51-.22.19-.14.28-.6.28-1.37v-12c0-.67-.07-1.1-.21-1.29-.19-.2-.72-.29-1.58-.29l-18.69.29h-36.3v-7.33c0-6.38.28-10.07.86-11.08.57-1.39.86-2.37.86-2.94 0-1.06-.79-1.59-2.37-1.59-3.5-.52-8.94-.89-16.32-1.08Zm-13.88 38.61h46.44c-4.84 18.36-12.22 32.69-22.14 42.99-10.74-11.02-18.83-25.35-24.3-42.99Z" style="stroke-width:2.21158"/><path fill="#bf3fba" d="M204.11 322.06h24.09l11.48-33.81h52.19l11.96 33.81H328l-49.31-132.88h-24.83Zm61.42-113.15h.37c.62 3.83 1.21 6.61 1.76 8.34l18.43 53h-40.66l18.25-53c.68-2.03 1.3-4.82 1.85-8.34Z" style="fill:#007ac7;fill-opacity:1;stroke-width:2.21158"/></svg>