<svg xmlns="http://www.w3.org/2000/svg" xml:space="preserve" width="128" height="128"><rect width="128" height="96" y="16.248" rx="18" ry="18" style="fill:#bdbdbd;fill-opacity:1;stroke-width:1.13959"/><rect width="34.878" height="17.439" x="12" y="36.519" rx="8.719" ry="8.719" style="fill:#007ac7;stroke-width:.552372"/><circle cx="38.158" cy="45.238" r="5.813" style="fill:#fff;fill-opacity:1;stroke-width:1.16259"/><rect width="64" height="6.48" x="52" y="56.394" rx="3.24" ry="3.24" style="fill:#007ac7;fill-opacity:1;stroke-width:1.70998"/><circle cx="81.823" cy="59.603" r="5.813" style="fill:#fff;fill-opacity:1;stroke-width:1.16259"/><circle cx="85.841" cy="84.534" r="8.719" style="fill:#007ac7;fill-opacity:1;stroke-width:2.17987"/><path d="M88.52 85.167h-5.357V83.9h5.357z" aria-label="-" style="font-size:20.0908px;font-family:&quot;Segoe UI Symbol&quot;;-inkscape-font-specification:&quot;Segoe UI Symbol&quot;;fill:none;stroke:#f4f4f4;stroke-width:2.14079"/><circle cx="107.281" cy="84.534" r="8.719" style="fill:#007ac7;fill-opacity:1;stroke-width:2.17987"/><path d="M111.89 85.191h-3.962v3.954h-1.305V85.19h-3.954v-1.314h3.954v-3.954h1.305v3.954h3.963z" aria-label="+" style="font-size:20.0908px;font-family:&quot;Segoe UI Symbol&quot;;-inkscape-font-specification:&quot;Segoe UI Symbol&quot;;fill:none;stroke:#f4f4f4;stroke-width:2.14079"/><g style="fill:#525252;fill-opacity:1" transform="matrix(1.21422 0 0 1.21422 -22.187 -1.856)"><circle cx="113.308" cy="24.4" r="3" style="fill:#525252;fill-opacity:1;stroke-width:.6"/><circle cx="105.308" cy="24.4" r="3" style="fill:#525252;fill-opacity:1;stroke-width:.6"/><circle cx="97.308" cy="24.4" r="3" style="fill:#525252;fill-opacity:1;stroke-width:.6"/></g><rect width="46.304" height="24" x="12" y="76.287" rx="3.24" ry="3.24" style="fill:#007ac7;fill-opacity:1;stroke:none;stroke-width:3;stroke-dasharray:none;stroke-opacity:1"/></svg>