<svg xmlns="http://www.w3.org/2000/svg" xml:space="preserve" width="128" height="128"><path d="M74.873 0c-4.97-.008-9.262.52-14.017 1.725-9.677 2.451-17.488 6.82-24.2 13.532-8.355 8.354-12.789 18.054-13.079 28.607-.069 2.517-.037 3.077.254 4.405.65 2.964 2.294 5.532 4.394 6.858 1.512.955 2.34 1.196 4.355 1.27 2.788.1 4.032-.285 9.132-2.83 2.29-1.144 4.598-2.194 5.126-2.334 3.444-.91 7.458-.163 9.526 1.772 1.166 1.09 1.657 2.194 1.739 3.91.1 2.092-.143 2.916-1.817 6.164-2.399 4.657-3.25 7.621-3.064 10.662.263 4.278 2.453 7.978 6.705 11.333 5.19 4.094 13.209 7.165 20.555 7.87 4.086.392 8.891.014 13.058-1.027 7.163-1.79 14.23-5.98 19.6-11.62 6.36-6.68 10.463-15.214 11.896-24.739.343-2.278.468-8.199.229-10.83a48.363 48.363 0 0 0-15.834-31.588c-6.345-5.704-12.893-9.31-20.437-11.252C83.784.546 79.758.008 74.874 0Zm1.095 56.713c.947-.029 1.867.03 2.51.187 4.023.975 6.646 4.304 6.097 7.736-.555 3.465-3.701 6.323-7.833 7.117-4.067.781-8.06-.901-9.814-4.135-.526-.97-.545-1.067-.545-2.768 0-1.656.031-1.829.52-2.862 1.058-2.232 3.587-4.18 6.4-4.93.747-.198 1.72-.315 2.665-.345z" style="fill:#3c119a;fill-opacity:1;stroke-width:.605484"/><path d="M95.978 68.117c.64.005 1.293.09 1.945.26 2.65.69 4.706 3.07 5.105 5.91.411 2.935-1.335 6.023-4.153 7.341-.95.444-1.269.509-2.765.557-2.227.073-3.336-.306-4.867-1.663-2.444-2.167-3.123-5.496-1.728-8.477 1.158-2.475 3.689-3.948 6.463-3.928z" style="fill:#76d1d1;fill-opacity:1;stroke-width:.605484"/><path d="M108.814 53.592a7.01 7.01 0 0 1 4.966 2.197c2.186 2.292 2.683 5.395 1.323 8.269-.9 1.904-2.588 3.288-4.67 3.83-1.139.297-2.244.295-3.48-.004-2.378-.576-4.126-2.15-5.042-4.538-.807-2.101-.493-4.669.804-6.567 1.462-2.143 3.786-3.231 6.099-3.186z" style="fill:#76d176;fill-opacity:1;stroke-width:.605484"/><path d="M111.643 34.49a7.619 7.619 0 0 1 4.384 1.187c2.638 1.692 3.91 5.096 3.008 8.054-.718 2.36-2.423 4.119-4.766 4.92-.951.325-2.793.457-3.67.263-1.679-.37-3.372-1.318-4.24-2.37-2.4-2.912-2.324-6.875.186-9.728 1.285-1.46 3.16-2.255 5.098-2.325z" style="fill:#e8d25e;fill-opacity:1;stroke-width:.605484"/><path d="M37.478 29.232c3.406.081 6.211 2.433 6.885 5.869.678 3.46-1.29 6.939-4.646 8.214-1.735.66-3.924.521-5.754-.362-1.205-.582-2.67-2.1-3.346-3.465-.585-1.184-.6-1.26-.596-2.985.006-2.065.32-3.081 1.372-4.412 1.424-1.802 3.122-2.697 5.396-2.845.232-.015.462-.02.69-.014z" style="fill:#5f8ae8;fill-opacity:1;stroke:none;stroke-width:.605484;stroke-opacity:1"/><path d="M103.14 17.06c.984-.047 1.665.01 2.282.189 4.387 1.275 6.58 6.051 4.662 10.152-.84 1.797-3.068 3.585-5.03 4.037-2.264.522-5.188-.452-6.763-2.252-1.675-1.915-2.257-4.354-1.622-6.796.515-1.978 1.97-3.732 3.88-4.676 1.03-.509 1.373-.595 2.59-.654z" style="fill:#e8a65e;fill-opacity:1;stroke-width:.605484"/><path d="M50.477 14.27a6.994 7.073 0 0 1 6.993 7.074 6.994 7.073 0 0 1-6.993 7.073 6.994 7.073 0 0 1-6.994-7.073 6.994 7.073 0 0 1 6.994-7.073z" style="fill:#a576d1;fill-opacity:1;stroke-width:.605484"/><path d="M87.088 7.097c2.53.125 5.005 1.617 6.33 4.292.67 1.352.68 1.395.68 3.066 0 1.52-.047 1.793-.448 2.65-.925 1.976-2.401 3.412-4.278 4.162-.951.38-3.337.478-4.375.179-2.203-.635-3.806-1.894-4.67-3.668-1.42-2.91-.954-6.002 1.266-8.4C83.117 7.732 85.12 7 87.088 7.098z" style="fill:#e85f5f;fill-opacity:1;stroke-width:.605484"/><path d="M67.533 5.532c2.835.182 5.481 2.48 6.233 5.414.345 1.349.242 3.57-.223 4.773-.692 1.793-2.2 3.242-4.213 4.046-1.347.538-3.303.582-4.666.104-1.93-.677-3.49-2.02-4.361-3.756-.598-1.192-.773-2.14-.7-3.797.06-1.37.123-1.624.685-2.731 1.354-2.668 4.18-4.25 7.245-4.053Z" style="fill:#d176a4;fill-opacity:1;stroke-width:.605484"/><path d="M40.653 96.488c-.484.03-2.142.133-3.684.226-5.534.337-12.494 1.205-16.766 2.091-4.364.906-6.648 1.75-7.569 2.798-1.403 1.598.283 2.702 5.11 3.347 1.835.246 3.363.367 14.339 1.138 8.791.618 13.256 1.194 17.415 2.247 4.114 1.041 6.987 2.565 7.6 4.03.552 1.319.06 2.56-1.957 4.938-2.66 3.138-2.933 4.568-1.213 6.374 1.802 1.893 6.736 3.405 13.479 4.13 2.373.256 10.47.257 13.377.003 7.146-.626 18.318-3.055 20.635-4.487 1.102-.68 1.147-1.646.103-2.185-1.286-.665-3.047-.817-12.168-1.045-6.168-.155-7.517-.289-9.33-.926-2.16-.76-2.847-1.977-2.025-3.589.186-.365 1.441-1.793 2.789-3.171 1.347-1.38 2.703-2.904 3.013-3.389 3.234-5.055-1.098-8.841-12.535-10.955-6.429-1.188-11.128-1.538-21.321-1.59-4.626-.022-8.807-.016-9.292.015z" style="fill:#a576d1;fill-opacity:1;stroke:none;stroke-width:.160201"/><path d="M45.888 111.942c-.484-.03-2.142-.133-3.684-.226-5.534-.337-12.494-1.205-16.766-2.091-4.364-.906-6.648-1.75-7.569-2.798-1.402-1.598.283-2.702 5.11-3.347 1.835-.245 3.363-.367 14.339-1.138 8.791-.617 13.256-1.194 17.415-2.247 4.115-1.041 6.987-2.565 7.6-4.03.552-1.319.06-2.56-1.957-4.938-2.66-3.138-2.933-4.567-1.213-6.374 1.802-1.893 6.736-3.405 13.479-4.13 2.373-.256 10.47-.257 13.377-.003 7.146.626 18.318 3.055 20.635 4.487 1.102.68 1.147 1.646.103 2.186-1.286.664-3.047.816-12.167 1.044-6.169.155-7.518.289-9.33.926-2.16.76-2.848 1.977-2.026 3.589.186.365 1.441 1.793 2.789 3.172 1.347 1.378 2.703 2.903 3.013 3.388 3.234 5.055-1.098 8.841-12.535 10.955-6.429 1.188-11.128 1.538-21.32 1.59-4.627.022-8.808.016-9.293-.015z" style="fill:#76d176;fill-opacity:1;stroke:none;stroke-width:.160201"/><path d="M41.643 116.011c-2.66-.544-3.106-.738-5.367-2.342-3.083-2.187-4.734-3.27-7.289-4.783a462.103 462.103 0 0 1-2.27-1.348c-.014-.011 1.32-.02 2.964-.02 3.203 0 4.287-.134 7.156-.885 4.48-1.173 8.829-3.183 17.222-7.958 9.6-5.462 14.213-7.65 20.185-9.57 7.848-2.525 16.226-2.7 22.468-.47 3.138 1.122 6.401 3.268 8.778 5.773 2.29 2.414 3.178 4.782 4.579 8.227.85 2.092 1.31 3.963.602 2.723-1.245-2.183-3.19-4.905-5.038-6.124-2.028-1.339-4.76-3.248-7.44-3.732-2.261-.408-5.861-.483-8.49-.176-4.435.518-8.208 1.61-12.175 3.526-3.521 1.7-4.779 2.504-13.475 8.61-7.494 5.263-11.01 7.175-15.153 8.24-2.056.529-5.472.675-7.257.31z" style="fill:#e8a65e;fill-opacity:1;stroke-width:.605484"/><path d="M50.54 120.796c-4.378-.627-6.915-1.71-11.214-4.783-.837-.599-1.342-1.041-1.121-.984.22.058.977.266 1.682.463 1.095.305 1.665.356 3.925.349 2.351-.007 2.825-.056 4.293-.445 4.204-1.111 7.683-3.006 15.153-8.251 8.696-6.107 9.954-6.91 13.475-8.61 3.967-1.917 7.74-3.01 12.175-3.527 2.629-.306 6.229-.232 8.49.176 2.68.484 5.58 1.606 7.609 2.945 1.924 1.27 4.111 3.708 5.354 5.968.555 1.01 1.275 2.857 1.16 2.973-.032.031-.327-.403-.656-.966-.742-1.267-2.217-2.919-3.469-3.882-3.231-2.487-8.273-3.915-13.04-3.694-6.88.318-13.478 3.45-22.029 10.456-6.717 5.503-11.928 9.532-13.307 10.287-2.03 1.113-6.166 1.856-8.48 1.525z" style="fill:#e85f5f;fill-opacity:1;stroke-width:.605484"/><path d="M42.627 124.738c-2.407-.379-5.696-1.657-8.066-3.134-3.524-2.197-6.666-4.856-13.605-11.52-3.614-3.47-6.14-4.56-7.705-7.047-.303-.48-.301-.712.517-.225 1.926 1.146 7.156 2.97 10.84 3.748 1.82.384 2.076.488 4.003 1.623 1.132.667 2.058 1.265 2.058 1.33 0 .065.093.118.206.118.225 0 2.744 1.66 5.401 3.557 4.3 3.07 6.708 4.653 8.25 5.425 3.351 1.676 6.838 2.356 10.086 1.967 1.727-.207 3.974-.795 4.933-1.29.33-.17.601-.286.601-.259 0 .028-.342.294-.76.59-.42.297-.798.585-.842.64-.21.263-2.185 1.496-3.538 2.208-1.723.908-3.193 1.482-5.033 1.965-1.464.385-5.714.56-7.346.304z" style="fill:#5f8ae8;fill-opacity:1;stroke-width:.605484"/><path d="M60.305 103.454c2.424-.276 4.685-.903 6.662-1.848 1.162-.555 3.038-1.737 3.41-2.147.203-.226.203-.229-.04-.229-.816 0-3.073-.92-4.16-1.695-.795-.568-1.734-1.495-2.345-2.316-.82-1.1-1.547-2.685-2.434-5.299-1.263-3.725-1.873-4.862-3.384-6.306-.94-.899-1.797-1.415-3.026-1.824a10.953 10.953 0 0 0-5.31-.388c-.524.091-.986.128-1.026.081-.041-.047-.65-.939-1.352-1.982-1.343-1.991-4.063-5.679-4.793-6.496l-.428-.48-4.248 4.208c-2.335 2.314-4.247 4.247-4.247 4.295 0 .261 4.928 4.108 7.426 5.796l1.421.961c.008.005-.077.52-.186 1.147-.671 3.863.405 7.154 3.264 9.973 2.28 2.249 5.167 3.687 8.726 4.346 1.372.254 4.655.364 6.07.203zM35.182 74.176l4.58-4.59-.677-.688c-.735-.749-6.51-6.363-8.267-8.037C20.302 50.836 13.616 45.283 9.302 42.989c-2.87-1.527-4.868-1.528-6.075-.002-.757.958-.804 1.739-.205 3.381C4.748 51.106 12.41 60.264 27.42 75.53l3.183 3.237z" style="fill:#007ac7;fill-opacity:1;stroke-width:.108402"/></svg>