<svg xmlns="http://www.w3.org/2000/svg" xml:space="preserve" width="128" height="128"><path d="M51.879 127.967c-.578-.037-2.556-.158-4.394-.27-6.6-.402-14.9-1.437-19.995-2.494-5.205-1.08-7.93-2.086-9.027-3.337-1.673-1.905.337-3.221 6.095-3.991 2.187-.293 4.01-.437 17.1-1.357 10.484-.737 15.808-1.424 20.77-2.68 4.906-1.242 8.331-3.059 9.063-4.807.658-1.572.072-3.051-2.334-5.889-3.173-3.742-3.498-5.447-1.447-7.6 2.15-2.259 8.034-4.062 16.075-4.927 2.83-.305 12.487-.306 15.954-.003 8.522.746 21.846 3.642 24.61 5.35 1.314.812 1.368 1.963.122 2.607-1.533.793-3.633.973-14.51 1.246-7.357.184-8.966.344-11.128 1.104-2.576.905-3.396 2.358-2.416 4.28.223.436 1.72 2.138 3.326 3.783 1.607 1.644 3.225 3.462 3.594 4.04 3.857 6.03-1.31 10.545-14.95 13.066-7.666 1.417-13.27 1.835-25.427 1.895-5.517.028-10.503.02-11.081-.017z" style="fill:#1cb156;fill-opacity:1;stroke:none;stroke-width:.191057"/><path d="M20.641 108.588c-4.273-.487-8.258-1.592-11.742-3.256-2.048-.979-5.355-3.062-6.008-3.785-.36-.399-.36-.403.068-.403 1.44 0 5.418-1.621 7.333-2.988 1.401-1 3.057-2.635 4.134-4.081 1.443-1.94 2.726-4.732 4.289-9.34 2.226-6.566 3.301-8.569 5.965-11.114 1.657-1.584 3.166-2.494 5.333-3.215a19.304 19.304 0 0 1 9.358-.685c.925.162 1.74.226 1.81.144.07-.083 1.143-1.655 2.383-3.494 2.365-3.51 7.16-10.008 8.446-11.449l.756-.846 7.485 7.416c4.117 4.08 7.486 7.486 7.486 7.57 0 .461-8.685 7.241-13.088 10.217l-2.505 1.693c-.012.008.136.918.327 2.021 1.185 6.81-.713 12.609-5.751 17.578-4.019 3.963-9.107 6.498-15.38 7.66-2.418.448-8.205.641-10.699.357zm44.278-51.601-8.07-8.09 1.192-1.214c1.296-1.318 11.473-11.213 14.57-14.165 18.535-17.668 30.318-27.455 37.922-31.5 5.06-2.69 8.58-2.69 10.706-.002 1.335 1.688 1.418 3.064.363 5.96-3.043 8.35-16.548 24.49-43.002 51.395l-5.61 5.705z" style="fill:#007ac7;fill-opacity:1;stroke-width:.191057"/></svg>