<svg xmlns="http://www.w3.org/2000/svg" xmlns:xlink="http://www.w3.org/1999/xlink" xml:space="preserve" width="128" height="128" fill="none"><defs><linearGradient id="c" x1="36.45" x2="11.82" y1="47.83" y2="5.175" gradientUnits="userSpaceOnUse"><stop stop-color="#333"/><stop offset="1" stop-color="#4D4D4D"/></linearGradient><linearGradient id="a" x1="14.53" x2="10.48" y1="34" y2="26.99" gradientUnits="userSpaceOnUse"><stop stop-color="#999"/><stop offset="1" stop-color="#B3B3B3"/></linearGradient><linearGradient xlink:href="#a" id="b" x1="14.53" x2="10.48" y1="34" y2="26.99" gradientUnits="userSpaceOnUse"/></defs><path fill="#ccc" d="M0 23.94h42.66V5.274H5.333C2.4 5.275 0 7.675 0 10.608Z" style="fill:#8564ce;fill-opacity:1;stroke-width:2.66628"/><path fill="#999" d="M86.245 5.275H42.66V23.94h43.585Z" style="fill:#603aaa;fill-opacity:1;stroke-width:2.695"/><path fill="#666" d="M127.981 23.94h-42.66V5.274h37.328c2.932 0 5.332 2.4 5.332 5.333z" style="fill:#603aaa;fill-opacity:1;stroke-width:2.66628"/><path fill="url(#c)" d="M101.116 105.697H5.333C2.4 105.697 0 103.194 0 100.134V22.26h127.981v74.123c0 1.536-6.5 1.233-12.805 3.184-6.248 1.934-12.291 6.13-14.06 6.13z" style="fill:#b1a6e1;fill-opacity:1;stroke-width:2.72317"/><path d="M16.806 62.658q2.031 1.487 5.006 4.606 3.518 3.664 4.824 4.788 1.306 1.125 1.306 2.467t-.98 2.358q-.979 1.015-2.285 1.015-1.015 0-2.031-.762-1.45-1.051-6.203-6.02-3.627-3.81-7-5.115-2.757-1.016-2.757-3.01 0-1.814 2.503-3.011 3.373-1.633 7.4-5.877 5.622-5.876 6.674-6.746 1.088-.907 2.176-.907 1.306 0 2.285 1.016 1.016.979 1.016 2.321 0 1.233-1.088 2.321-3.483 3.7-10.846 10.556zm23.94 25.536q-1.342 0-2.358-.907-1.015-.907-1.015-2.25 0-.58.254-1.232 2.829-7.799 10.664-22.453 7.835-14.69 10.7-22.525 4.752-12.986 7.182-12.877 1.342.036 2.358.98 1.015.906 1.015 2.212 0 .834-.399 1.995l-4.062 9.866q-2.43 6.71-6.928 15.488l-7.908 15.017-6.565 14.546q-.98 2.14-2.938 2.14zm58.29-27.314q0 1.306-1.342 2.576-8.633 8.016-18.1 14.073-1.016.653-1.923.653-1.305 0-2.285-1.015-.943-1.052-.943-2.358 0-1.45 1.415-2.539l14.074-10.737q-3.229-2.14-7.98-6.565-5.804-5.477-5.804-7.581 0-1.306 1.016-2.285 1.015-.98 2.321-.98 1.342 0 2.43 1.234 8.27 9.25 14.98 12.731 2.141 1.089 2.141 2.793z" aria-label="&lt;/&gt;" style="font-size:27.4154px;font-family:&quot;Comic Sans MS&quot;;-inkscape-font-specification:&quot;Comic Sans MS&quot;;fill:#603aaa;stroke-width:6.19052;fill-opacity:1"/><path d="M14.343 105.675c7.89-.402 15.371-.696 22.25 2.325 4.161 1.827 6.987 4.527 10.453 6.823 6.716 4.448 16.213 8.442 26.293 7.822 14.312-.88 21.843-8.342 30.3-14.9 3.987-3.093 8.182-6.481 14.2-7.943 3.392-.824 6.23-.967 10.1-.552v-4.24c0-.814.25-4.896-.256-5.646-.43-.64-2.506-.966-3.438-1.187-3.784-.896-7.621-1.233-11.63-1.232-10.492 0-20.236 3.103-28.825 6.718-5.152 2.169-10.221 5.23-16.519 5.866-6.715.678-12.292-2.223-18.542-3.148-12.808-1.897-27.733 1.75-34.386 9.294" style="fill:#8564ce;fill-opacity:1;stroke:none;stroke-width:.135485"/><path d="M69.033 122.668c-1.74-.134-3.506-.348-3.406-.413.047-.03.683-.214 1.412-.406 5.128-1.357 9.924-4.303 12.6-7.74.366-.472.666-.873.666-.891 0-.019-.824.485-1.832 1.12-2.267 1.427-4.421 2.428-7.067 3.284-3.64 1.177-6.2 1.583-10 1.585-4.181.039-8.273-.665-11.435-2.432-1.873-1.03-3.723-2.275-6.626-4.46-5.749-4.324-10.16-5.935-16.833-6.614-1.55-.158-2.456-.304-5.707-.245-2.144.038-4.55.147-5.296.176-.746.03-1.306.082-1.166.043.14-.039.697-.444 1.21-.697 3.292-1.623 7.51-2.91 11.611-3.542 1.69-.26 2.183-.287 5.255-.288 3.179 0 3.507.02 5.255.312 4.97.832 7.78 1.877 13.984 5.2 2.831 1.515 5.269 2.544 7.081 2.987 1.426.349 1.568.362 3.937.362 2.349 0 2.52-.015 3.853-.343 2.4-.593 4.019-1.376 7.758-3.75 3.586-2.277 4.744-2.905 6.527-3.539 2.723-.968 5.26-.98 6.61-.032.39.274.424.378.413 1.301a4.782 4.782 0 0 1-.402 1.912c-.215.5-.356.93-.314.958.042.027 1.443-.871 3.114-1.996 9.938-6.689 16.924-9.739 24.82-10.836 1.079-.15 2.165-.2 4.322-.2 3.18.002 4.519.154 7.197.822l1.363.34v4.608l-.466-.068c-.256-.038-1.343-.098-2.415-.133-4.18-.14-8.187.65-11.816 2.329-3.547 1.641-6.253 3.557-14.59 10.331-4.442 3.61-6.786 5.227-10.067 6.942-3.66 1.913-8.295 3.32-12.663 3.84-1.739.208-5.284.297-6.887.173z" style="fill:#603aaa;fill-opacity:1;stroke-width:.136246"/></svg>