<svg xmlns="http://www.w3.org/2000/svg" xml:space="preserve" width="128" height="128"><path fill="#bf3fba" fill-rule="evenodd" d="M35.332 3.797c.49 2.608.736 6.23.736 10.86v4.509H14.402l-11.963-.184c-.43 0-.708.045-.83.137-.121.09-.184.384-.184.875v7.681c0 .43.047.707.139.83.092.123.384.184.875.184l11.963-.184h1.793c4.479 14.447 10.582 25.842 18.311 34.185C26.041 69.378 14.54 74.946 0 79.392c1.871 1.997 3.28 4.328 4.232 6.996.614 1.564 1.21 2.345 1.793 2.345.122 0 .875-.184 2.255-.552 13.128-4.57 24.338-10.734 33.632-18.495 7.643 6.406 16.436 11.676 26.333 15.849l4.023-10.745c-8.825-3.325-16.416-7.38-22.719-12.192 7.912-8.589 13.82-19.953 17.716-34.093h2.16l11.965.184c.49 0 .81-.045.963-.137.124-.094.184-.385.184-.877v-7.681c0-.429-.045-.706-.137-.828-.124-.123-.458-.184-1.01-.184l-11.965.184H46.192v-4.69c0-4.081.183-6.444.552-7.09.368-.888.552-1.516.552-1.884 0-.676-.508-1.012-1.52-1.012-2.24-.339-5.721-.57-10.444-.693Zm-8.878 24.708h29.72C53.073 40.253 48.35 49.426 42 56.019c-6.87-7.054-12.052-16.226-15.548-27.514Z" clip-rule="evenodd" style="stroke-width:1.41541"/><path fill="#bf3fba" fill-rule="evenodd" d="M48.709 124.203h15.416l7.352-21.64h33.398l7.653 21.64H128L96.442 39.155H80.55Zm39.31-72.419h.24c.394 2.45.77 4.23 1.126 5.338l11.79 33.915h-26.02l11.68-33.915c.435-1.304.829-3.086 1.185-5.338z" clip-rule="evenodd" style="fill:#007ac7;fill-opacity:1;stroke-width:1.41541"/></svg>