<svg xmlns="http://www.w3.org/2000/svg" width="256" height="256" version="1.2"><circle cx="128" cy="128" r="47.854" fill="#ff7f2a"/><circle cx="199.782" cy="128" r="5.982" fill="#ff7f2a"/><circle cx="211.487" cy="134.571" r="5.982" fill="#ff5f1f"/><circle cx="222.531" cy="142.973" r="5.982" fill="#ff3f15"/><circle cx="232.697" cy="153.136" r="5.982" fill="#ff1f0a"/><circle cx="241.781" cy="164.97" r="5.982" fill="red"/><circle cx="194.318" cy="155.47" r="5.982" fill="#ff7f2a"/><circle cx="202.617" cy="166.019" r="5.982" fill="#ff5f1f"/><circle cx="209.605" cy="178.008" r="5.982" fill="#ff3f15"/><circle cx="215.108" cy="191.289" r="5.982" fill="#ff1f0a"/><circle cx="218.973" cy="205.698" r="5.982" fill="red"/><circle cx="178.757" cy="178.757" r="5.982" fill="#ff7f2a"/><circle cx="182.388" cy="191.68" r="5.982" fill="#ff5f1f"/><circle cx="184.257" cy="205.43" r="5.982" fill="#ff3f15"/><circle cx="184.259" cy="219.806" r="5.982" fill="#ff1f0a"/><circle cx="182.314" cy="234.597" r="5.982" fill="red"/><circle cx="155.47" cy="194.318" r="5.982" fill="#ff7f2a"/><circle cx="153.879" cy="207.647" r="5.982" fill="#ff5f1f"/><circle cx="150.343" cy="221.065" r="5.982" fill="#ff3f15"/><circle cx="144.844" cy="234.347" r="5.982" fill="#ff1f0a"/><circle cx="137.387" cy="247.268" r="5.982" fill="red"/><circle cx="128" cy="199.782" r="5.982" fill="#ff7f2a"/><circle cx="121.43" cy="211.487" r="5.982" fill="#ff5f1f"/><circle cx="113.028" cy="222.531" r="5.982" fill="#ff3f15"/><circle cx="102.865" cy="232.697" r="5.982" fill="#ff1f0a"/><circle cx="91.031" cy="241.781" r="5.982" fill="red"/><circle cx="100.531" cy="194.318" r="5.982" fill="#ff7f2a"/><circle cx="89.981" cy="202.617" r="5.982" fill="#ff5f1f"/><circle cx="77.993" cy="209.605" r="5.982" fill="#ff3f15"/><circle cx="64.712" cy="215.108" r="5.982" fill="#ff1f0a"/><circle cx="50.303" cy="218.973" r="5.982" fill="red"/><circle cx="77.243" cy="178.757" r="5.982" fill="#ff7f2a"/><circle cx="64.32" cy="182.388" r="5.982" fill="#ff5f1f"/><circle cx="50.57" cy="184.257" r="5.982" fill="#ff3f15"/><circle cx="36.194" cy="184.259" r="5.982" fill="#ff1f0a"/><circle cx="21.404" cy="182.314" r="5.982" fill="red"/><circle cx="61.683" cy="155.47" r="5.982" fill="#ff7f2a"/><circle cx="48.354" cy="153.879" r="5.982" fill="#ff5f1f"/><circle cx="34.936" cy="150.343" r="5.982" fill="#ff3f15"/><circle cx="21.653" cy="144.844" r="5.982" fill="#ff1f0a"/><circle cx="8.733" cy="137.387" r="5.982" fill="red"/><circle cx="56.219" cy="128" r="5.982" fill="#ff7f2a"/><circle cx="44.513" cy="121.43" r="5.982" fill="#ff5f1f"/><circle cx="33.47" cy="113.028" r="5.982" fill="#ff3f15"/><circle cx="23.303" cy="102.865" r="5.982" fill="#ff1f0a"/><circle cx="14.22" cy="91.031" r="5.982" fill="red"/><circle cx="61.683" cy="100.531" r="5.982" fill="#ff7f2a"/><circle cx="53.383" cy="89.981" r="5.982" fill="#ff5f1f"/><circle cx="46.395" cy="77.993" r="5.982" fill="#ff3f15"/><circle cx="40.891" cy="64.712" r="5.982" fill="#ff1f0a"/><circle cx="37.028" cy="50.303" r="5.982" fill="red"/><circle cx="77.243" cy="77.243" r="5.982" fill="#ff7f2a"/><circle cx="73.612" cy="64.32" r="5.982" fill="#ff5f1f"/><circle cx="71.744" cy="50.57" r="5.982" fill="#ff3f15"/><circle cx="71.742" cy="36.194" r="5.982" fill="#ff1f0a"/><circle cx="73.687" cy="21.404" r="5.982" fill="red"/><circle cx="100.531" cy="61.683" r="5.982" fill="#ff7f2a"/><circle cx="102.122" cy="48.354" r="5.982" fill="#ff5f1f"/><circle cx="105.657" cy="34.936" r="5.982" fill="#ff3f15"/><circle cx="111.157" cy="21.653" r="5.982" fill="#ff1f0a"/><circle cx="118.614" cy="8.733" r="5.982" fill="red"/><circle cx="128" cy="56.219" r="5.982" fill="#ff7f2a"/><circle cx="134.571" cy="44.513" r="5.982" fill="#ff5f1f"/><circle cx="142.973" cy="33.47" r="5.982" fill="#ff3f15"/><circle cx="153.136" cy="23.303" r="5.982" fill="#ff1f0a"/><circle cx="164.97" cy="14.22" r="5.982" fill="red"/><circle cx="155.47" cy="61.683" r="5.982" fill="#ff7f2a"/><circle cx="166.019" cy="53.383" r="5.982" fill="#ff5f1f"/><circle cx="178.008" cy="46.395" r="5.982" fill="#ff3f15"/><circle cx="191.289" cy="40.891" r="5.982" fill="#ff1f0a"/><circle cx="205.698" cy="37.028" r="5.982" fill="red"/><circle cx="178.757" cy="77.243" r="5.982" fill="#ff7f2a"/><circle cx="191.68" cy="73.612" r="5.982" fill="#ff5f1f"/><circle cx="205.43" cy="71.744" r="5.982" fill="#ff3f15"/><circle cx="219.806" cy="71.742" r="5.982" fill="#ff1f0a"/><circle cx="234.597" cy="73.687" r="5.982" fill="red"/><circle cx="194.318" cy="100.531" r="5.982" fill="#ff7f2a"/><circle cx="207.647" cy="102.122" r="5.982" fill="#ff5f1f"/><circle cx="221.065" cy="105.657" r="5.982" fill="#ff3f15"/><circle cx="234.347" cy="111.157" r="5.982" fill="#ff1f0a"/><circle cx="247.268" cy="118.614" r="5.982" fill="red"/></svg>